<svg width="1200" height="600" xmlns="http://www.w3.org/2000/svg">
    <polygon points="330,220 350,180 370,220" fill="#ffa500" transform="rotate(25)" transform-origin="350px 180px"/>
    <polygon points="340,215 350,190 360,215" fill="#000" transform="rotate(25)" transform-origin="350px 180px"/>
    <polygon points="220,220 240,180 260,220" fill="#ffa500" transform="rotate(-25)" transform-origin="240px 180px"/>
    <polygon points="230,215 240,190 250,215" fill="#000" transform="rotate(-25)" transform-origin="240px 180px"/>
    <ellipse cx="300" cy="400" rx="60" ry="15" fill="#d3d3d3"/>
    <circle cx="300" cy="300" r="100" fill="#ffa500"/>
    <circle cx="345" cy="270" r="38" fill="#fff"/>
    <circle cx="295" cy="270" r="38" fill="#fff"/>
    <circle cx="300" cy="270" r="8" fill="#000"/>
    <circle cx="350" cy="270" r="8" fill="#000"/>
    <circle cx="325" cy="305" r="13" fill="#000"/>
    <ellipse cx="200" cy="370" rx="65" ry="25" fill="#ffa500" transform="rotate(15)" transform-origin="370px 200px"/>
    <ellipse cx="300" cy="340" rx="16" ry="8" fill="#dc143c"/>
    <polygon points="90,345 110,305 130,345" fill="#fff" transform="rotate(-72)" transform-origin="110px 305px"/>

    <ellipse cx="700" cy="400" rx="60" ry="15" fill="#d3d3d3"/>
    <circle cx="700" cy="300" r="100" fill="#ffd700"/>
    <ellipse cx="700" cy="400" rx="60" ry="15" fill="#d3d3d3"/>
    <circle cx="700" cy="300" r="100" fill="#ffd700"/>
    <ellipse cx="690" cy="340" rx="8" ry="16" fill="#dc143c"/>
    <circle cx="660" cy="270" r="38" fill="#fff"/>
    <circle cx="720" cy="270" r="38" fill="#fff"/>
    <circle cx="650" cy="270" r="8" fill="#000"/>
    <circle cx="710" cy="270" r="8" fill="#000"/>
  </svg>